<?xml version="1.0" encoding="UTF-8" standalone="no"?>
<!-- Created with Inkscape (http://www.inkscape.org/) -->

<svg
   xmlns:dc="http://purl.org/dc/elements/1.1/"
   xmlns:cc="http://creativecommons.org/ns#"
   xmlns:rdf="http://www.w3.org/1999/02/22-rdf-syntax-ns#"
   xmlns:svg="http://www.w3.org/2000/svg"
   xmlns="http://www.w3.org/2000/svg"
   xmlns:sodipodi="http://sodipodi.sourceforge.net/DTD/sodipodi-0.dtd"
   xmlns:inkscape="http://www.inkscape.org/namespaces/inkscape"
   id="svg2985"
   version="1.1"
   inkscape:version="0.48.4 r9939"
   width="256"
   height="256"
   sodipodi:docname="lastfm-icon.png">
  <metadata
     id="metadata2991">
    <rdf:RDF>
      <cc:Work
         rdf:about="">
        <dc:format>image/svg+xml</dc:format>
        <dc:type
           rdf:resource="http://purl.org/dc/dcmitype/StillImage" />
        <dc:title></dc:title>
      </cc:Work>
    </rdf:RDF>
  </metadata>
  <defs
     id="defs2989" />
  <sodipodi:namedview
     pagecolor="#ffffff"
     bordercolor="#666666"
     borderopacity="1"
     objecttolerance="10"
     gridtolerance="10"
     guidetolerance="10"
     inkscape:pageopacity="0"
     inkscape:pageshadow="2"
     inkscape:window-width="1225"
     inkscape:window-height="904"
     id="namedview2987"
     showgrid="false"
     inkscape:zoom="1.4142136"
     inkscape:cx="-14.770443"
     inkscape:cy="234.97441"
     inkscape:window-x="1386"
     inkscape:window-y="53"
     inkscape:window-maximized="0"
     inkscape:current-layer="svg2985" />
  <g
     id="g3013"
     transform="translate(-9.3668e-4,0.00265147)">
    <path
       style="fill:#fcf3f1"
       d="M 0,128 0,0 l 128,0 128,0 0,128 0,128 -128,0 -128,0 0,-128 z"
       id="path3017"
       inkscape:connector-curvature="0" />
    <path
       style="fill:#df2703"
       d="M 0,128 0,0 l 128,0 128,0 0,128 0,128 -128,0 -128,0 0,-128 z m 101.42009,50.10607 C 110.00203,175.03954 116,171.28548 116,168.98068 c 0,-2.1911 -4.6658,-15.04648 -5.91413,-16.29481 -0.44903,-0.44903 -3.66849,1.02697 -7.15436,3.28 -19.820538,12.81063 -39.569978,7.4601 -45.441367,-12.31102 -1.974149,-6.64768 -1.963381,-23.69828 0.01918,-30.3743 C 59.93259,105.12053 64.683185,98.919956 71,95.672236 c 4.981796,-2.561335 6.253751,-2.789897 13.5,-2.425855 8.95104,0.449687 12.659081,1.957217 17.77763,7.227619 4.70102,4.84048 7.63139,11.33666 14.22112,31.526 6.60877,20.24769 10.29186,27.475 17.68252,34.69829 10.04924,9.82169 23.85805,14.26698 44.31873,14.26698 20.0022,0 31.53094,-3.64928 39.25672,-12.42623 7.84365,-8.91085 8.48932,-24.71347 1.42656,-34.91469 -5.36605,-7.75055 -13.40761,-11.71746 -31.84011,-15.70674 C 172.10373,114.61938 169,112.2499 169,103.91386 c 0,-5.641372 3.13023,-9.333295 9.32838,-11.002283 9.5713,-2.577284 19.15791,1.260341 21.8676,8.753833 l 1.28964,3.56645 7.40987,-0.67147 c 14.3603,-1.30129 14.95782,-1.67774 13.17458,-8.300183 C 220.55695,90.64091 215.94068,84.20676 211.08005,80.94232 199.75669,73.337466 173.02504,73.10697 160.40069,80.505334 150.99436,86.017805 146.74031,93.720831 146.5972,105.5 c -0.12191,10.03364 2.02969,16.02676 7.54156,21.00639 5.27742,4.76784 10.46635,6.89525 25.69456,10.53455 17.24635,4.1216 21.10333,6.81299 21.14444,14.75451 0.0441,8.51848 -6.72809,11.64057 -23.96526,11.04837 -9.02171,-0.30994 -11.31523,-0.75414 -16.17304,-3.13227 -6.45704,-3.16104 -11.69107,-8.48516 -15.1646,-15.42565 -1.31738,-2.63224 -4.77178,-11.9859 -7.67646,-20.7859 -2.90468,-8.8 -6.82589,-19.09236 -8.71379,-22.87192 -9.23697,-18.492297 -25.72723,-26.721036 -50.777029,-25.338048 -15.394187,0.849906 -24.7772,4.83233 -33.361074,14.15941 -8.875982,9.644479 -13.93478,27.457138 -12.794364,45.050558 1.574064,24.2834 12.375182,39.52678 31.898531,45.0177 7.866843,2.21254 29.305495,1.39834 37.169416,-1.41163 z"
       id="path3015"
       inkscape:connector-curvature="0" />
  </g>
</svg>
